<svg width="116" height="32" viewBox="0 0 116 32" fill="none" xmlns="http://www.w3.org/2000/svg">
<path d="M53.5244 25H45.0439V6.28711H54.1338C56.4274 6.32096 58.0524 6.98535 59.0088 8.28027C59.5843 9.07585 59.8721 10.028 59.8721 11.1367C59.8721 12.2793 59.5843 13.1976 59.0088 13.8916C58.6872 14.2809 58.2132 14.6364 57.5869 14.958C58.5433 15.305 59.2627 15.8551 59.7451 16.6084C60.236 17.3617 60.4814 18.2757 60.4814 19.3506C60.4814 20.4593 60.2021 21.4538 59.6436 22.334C59.2881 22.918 58.8438 23.4089 58.3105 23.8066C57.7096 24.2637 56.9987 24.5768 56.1777 24.7461C55.3652 24.9154 54.4808 25 53.5244 25ZM53.4355 16.7607H48.7764V21.75H53.3721C54.193 21.75 54.832 21.64 55.2891 21.4199C56.1185 21.0137 56.5332 20.235 56.5332 19.084C56.5332 18.1107 56.1312 17.4421 55.3271 17.0781C54.8786 16.875 54.248 16.7692 53.4355 16.7607ZM55.3779 13.1934C55.8857 12.8887 56.1396 12.3428 56.1396 11.5557C56.1396 10.6839 55.8011 10.1084 55.124 9.8291C54.54 9.63444 53.7952 9.53711 52.8896 9.53711H48.7764V13.6631H53.3721C54.193 13.6631 54.8617 13.5065 55.3779 13.1934ZM63.5537 6.28711H67.1719V25H63.5537V6.28711ZM82.2539 12.9141C83.4219 14.3783 84.0059 16.109 84.0059 18.1064C84.0059 20.1377 83.4219 21.877 82.2539 23.3242C81.0859 24.763 79.3128 25.4824 76.9346 25.4824C74.5563 25.4824 72.7832 24.763 71.6152 23.3242C70.4473 21.877 69.8633 20.1377 69.8633 18.1064C69.8633 16.109 70.4473 14.3783 71.6152 12.9141C72.7832 11.4499 74.5563 10.7178 76.9346 10.7178C79.3128 10.7178 81.0859 11.4499 82.2539 12.9141ZM76.9219 13.7773C75.8639 13.7773 75.0472 14.154 74.4717 14.9072C73.9046 15.652 73.6211 16.7184 73.6211 18.1064C73.6211 19.4945 73.9046 20.5651 74.4717 21.3184C75.0472 22.0716 75.8639 22.4482 76.9219 22.4482C77.9798 22.4482 78.7923 22.0716 79.3594 21.3184C79.9264 20.5651 80.21 19.4945 80.21 18.1064C80.21 16.7184 79.9264 15.652 79.3594 14.9072C78.7923 14.154 77.9798 13.7773 76.9219 13.7773ZM98.1484 12.9141C99.3164 14.3783 99.9004 16.109 99.9004 18.1064C99.9004 20.1377 99.3164 21.877 98.1484 23.3242C96.9805 24.763 95.2074 25.4824 92.8291 25.4824C90.4508 25.4824 88.6777 24.763 87.5098 23.3242C86.3418 21.877 85.7578 20.1377 85.7578 18.1064C85.7578 16.109 86.3418 14.3783 87.5098 12.9141C88.6777 11.4499 90.4508 10.7178 92.8291 10.7178C95.2074 10.7178 96.9805 11.4499 98.1484 12.9141ZM92.8164 13.7773C91.7585 13.7773 90.9417 14.154 90.3662 14.9072C89.7992 15.652 89.5156 16.7184 89.5156 18.1064C89.5156 19.4945 89.7992 20.5651 90.3662 21.3184C90.9417 22.0716 91.7585 22.4482 92.8164 22.4482C93.8743 22.4482 94.6868 22.0716 95.2539 21.3184C95.821 20.5651 96.1045 19.4945 96.1045 18.1064C96.1045 16.7184 95.821 15.652 95.2539 14.9072C94.6868 14.154 93.8743 13.7773 92.8164 13.7773ZM114.094 12.6475C115.211 13.8408 115.77 15.5928 115.77 17.9033C115.77 20.3408 115.219 22.1986 114.119 23.4766C113.027 24.7546 111.618 25.3936 109.892 25.3936C108.791 25.3936 107.877 25.1185 107.149 24.5684C106.752 24.2637 106.362 23.8193 105.981 23.2354V30.4463H102.401V11.1621H105.867V13.2061C106.257 12.6051 106.671 12.1312 107.111 11.7842C107.915 11.1663 108.872 10.8574 109.98 10.8574C111.597 10.8574 112.968 11.4541 114.094 12.6475ZM112.037 18.0811C112.037 17.0146 111.792 16.071 111.301 15.25C110.818 14.429 110.031 14.0186 108.939 14.0186C107.628 14.0186 106.726 14.6406 106.235 15.8848C105.981 16.5449 105.854 17.3828 105.854 18.3984C105.854 20.0065 106.282 21.1364 107.137 21.7881C107.645 22.1689 108.245 22.3594 108.939 22.3594C109.947 22.3594 110.713 21.9701 111.237 21.1914C111.771 20.4128 112.037 19.376 112.037 18.0811Z" fill="white"/>
<rect x="11" y="3" width="13.4444" height="22" fill="white"/>
<rect x="33" y="14" width="11" height="22" transform="rotate(90 33 14)" fill="#B5FFF7"/>
</svg>
